<svg id="visual" viewBox="0 0 960 300" width="960" height="300" xmlns="http://www.w3.org/2000/svg" xmlns:xlink="http://www.w3.org/1999/xlink" version="1.1"><rect x="0" y="0" width="960" height="300" fill="#FFFFFF"></rect><path d="M0 88L22.8 92.2C45.7 96.3 91.3 104.7 137 109.8C182.7 115 228.3 117 274 110.7C319.7 104.3 365.3 89.7 411.2 90.3C457 91 503 107 548.8 107.8C594.7 108.7 640.3 94.3 686 94.3C731.7 94.3 777.3 108.7 823 115.3C868.7 122 914.3 121 937.2 120.5L960 120L960 0L937.2 0C914.3 0 868.7 0 823 0C777.3 0 731.7 0 686 0C640.3 0 594.7 0 548.8 0C503 0 457 0 411.2 0C365.3 0 319.7 0 274 0C228.3 0 182.7 0 137 0C91.3 0 45.7 0 22.8 0L0 0Z" fill="#cccccc"></path><path d="M0 66L22.8 67.5C45.7 69 91.3 72 137 73.7C182.7 75.3 228.3 75.7 274 74.8C319.7 74 365.3 72 411.2 73.5C457 75 503 80 548.8 85.2C594.7 90.3 640.3 95.7 686 96C731.7 96.3 777.3 91.7 823 90.8C868.7 90 914.3 93 937.2 94.5L960 96L960 0L937.2 0C914.3 0 868.7 0 823 0C777.3 0 731.7 0 686 0C640.3 0 594.7 0 548.8 0C503 0 457 0 411.2 0C365.3 0 319.7 0 274 0C228.3 0 182.7 0 137 0C91.3 0 45.7 0 22.8 0L0 0Z" fill="#b5c4d7"></path><path d="M0 69L22.8 70.8C45.7 72.7 91.3 76.3 137 72.2C182.7 68 228.3 56 274 55.3C319.7 54.7 365.3 65.3 411.2 65.8C457 66.3 503 56.7 548.8 54.2C594.7 51.7 640.3 56.3 686 57.5C731.7 58.7 777.3 56.3 823 53.7C868.7 51 914.3 48 937.2 46.5L960 45L960 0L937.2 0C914.3 0 868.7 0 823 0C777.3 0 731.7 0 686 0C640.3 0 594.7 0 548.8 0C503 0 457 0 411.2 0C365.3 0 319.7 0 274 0C228.3 0 182.7 0 137 0C91.3 0 45.7 0 22.8 0L0 0Z" fill="#9bbce2"></path><path d="M0 46L22.8 47.5C45.7 49 91.3 52 137 49.2C182.7 46.3 228.3 37.7 274 35.3C319.7 33 365.3 37 411.2 39.5C457 42 503 43 548.8 43.3C594.7 43.7 640.3 43.3 686 43C731.7 42.7 777.3 42.3 823 43.8C868.7 45.3 914.3 48.7 937.2 50.3L960 52L960 0L937.2 0C914.3 0 868.7 0 823 0C777.3 0 731.7 0 686 0C640.3 0 594.7 0 548.8 0C503 0 457 0 411.2 0C365.3 0 319.7 0 274 0C228.3 0 182.7 0 137 0C91.3 0 45.7 0 22.8 0L0 0Z" fill="#7bb4ed"></path><path d="M0 19L22.8 19.3C45.7 19.7 91.3 20.3 137 21.3C182.7 22.3 228.3 23.7 274 23.7C319.7 23.7 365.3 22.3 411.2 22.3C457 22.3 503 23.7 548.8 23.3C594.7 23 640.3 21 686 21.3C731.7 21.7 777.3 24.3 823 24.8C868.7 25.3 914.3 23.7 937.2 22.8L960 22L960 0L937.2 0C914.3 0 868.7 0 823 0C777.3 0 731.7 0 686 0C640.3 0 594.7 0 548.8 0C503 0 457 0 411.2 0C365.3 0 319.7 0 274 0C228.3 0 182.7 0 137 0C91.3 0 45.7 0 22.8 0L0 0Z" fill="#4facf7"></path></svg>